<svg width="10" height="10" viewBox="0 0 10 10" fill="none" xmlns="http://www.w3.org/2000/svg">
<path d="M3.63622 5.01051L1.06224 7.58449C0.885582 7.76115 0.777954 7.99875 0.777954 8.26111C0.777954 8.80287 1.20346 9.24266 1.74919 9.24266C2.02012 9.24266 2.26695 9.13642 2.45388 8.96118L2.45394 8.96124L2.45729 8.95786L5.00031 6.38492L7.56362 8.9582L7.56379 8.95837C7.74222 9.1368 7.99081 9.24266 8.26106 9.24266C8.80678 9.24266 9.23229 8.80287 9.23229 8.26111C9.23229 7.99793 9.15137 7.75496 8.94534 7.57151L6.38417 5.01034L8.95708 2.43743C9.1713 2.23444 9.24261 2.00345 9.24261 1.74924C9.24261 1.21581 8.81513 0.78833 8.28169 0.78833C8.02175 0.78833 7.80422 0.873574 7.60531 1.07238C7.60523 1.07246 7.60515 1.07254 7.60507 1.07262L5.0003 3.64745L2.42564 1.08277L2.42568 1.08273L2.42292 1.08014C2.23982 0.908488 2.02477 0.79865 1.74919 0.79865C1.20746 0.79865 0.777954 1.21381 0.777954 1.75956C0.777954 2.02247 0.885909 2.25851 1.05944 2.44361L1.05939 2.44366L1.06242 2.44668L3.63622 5.01051Z" fill="#696B6C" stroke="#696B6C" stroke-width="0.25"/>
</svg>
