<svg width="13" height="12" viewBox="0 0 13 12" fill="none" xmlns="http://www.w3.org/2000/svg">
<path d="M7.54731 11.4512C7.76129 11.4512 7.94264 11.3751 8.09134 11.2227C8.24367 11.074 8.36699 10.8746 8.46129 10.6243L11.8942 1.65858C11.9341 1.54615 11.9649 1.44097 11.9866 1.34304C12.012 1.24511 12.0247 1.15444 12.0247 1.07102C12.0247 0.864287 11.9631 0.701076 11.8398 0.581388C11.7201 0.4617 11.5587 0.401855 11.3556 0.401855C11.2685 0.401855 11.176 0.412736 11.0781 0.434498C10.9802 0.456259 10.8768 0.488901 10.768 0.532424L1.77508 3.97074C1.54295 4.06141 1.35073 4.1811 1.1984 4.3298C1.04969 4.4785 0.975342 4.65985 0.975342 4.87384C0.975342 5.13135 1.05876 5.32357 1.2256 5.45052C1.39606 5.57746 1.61186 5.68083 1.873 5.76062L4.38645 6.53859C4.58593 6.60025 4.75458 6.62564 4.89241 6.61476C5.03386 6.60025 5.17893 6.5259 5.32764 6.3917L11.1597 1.03294C11.1996 1.0003 11.2413 0.985788 11.2848 0.989415C11.3284 0.989415 11.3646 1.00211 11.3936 1.0275C11.4227 1.06014 11.4372 1.09822 11.4372 1.14175C11.4408 1.18527 11.4245 1.22516 11.3882 1.26143L6.04032 7.09895C5.91701 7.23677 5.84628 7.38003 5.82815 7.52874C5.81001 7.67381 5.82996 7.84428 5.88799 8.04013L6.64964 10.5209C6.73306 10.7893 6.83824 11.0106 6.96519 11.1847C7.09576 11.3624 7.28979 11.4512 7.54731 11.4512Z" fill="#DCDCDF"/>
</svg>
